<mxfile host="app.diagrams.net" modified="2024-11-14T10:55:29.195Z" agent="Mozilla/5.0 (Macintosh; Intel Mac OS X 10_15_7) AppleWebKit/537.36 (KHTML, like Gecko) Chrome/130.0.0.0 Safari/537.36" etag="uUnFx46k9bGI09HGaZv8" version="24.6.3" type="github">
  <diagram name="Page-1" id="_u2ymdncncwuiCIKRVWQ">
    <mxGraphModel dx="1248" dy="927" grid="0" gridSize="10" guides="1" tooltips="1" connect="1" arrows="1" fold="1" page="1" pageScale="1" pageWidth="850" pageHeight="1100" math="0" shadow="0">
      <root>
        <mxCell id="0" />
        <mxCell id="1" parent="0" />
        <mxCell id="5kTlIn1ucJ1gf1WWtL7z-1" value="" style="rounded=0;whiteSpace=wrap;html=1;" vertex="1" parent="1">
          <mxGeometry x="150" y="41" width="370" height="659" as="geometry" />
        </mxCell>
        <mxCell id="5kTlIn1ucJ1gf1WWtL7z-50" value="" style="rounded=0;whiteSpace=wrap;html=1;" vertex="1" parent="1">
          <mxGeometry x="599" y="39" width="375" height="689" as="geometry" />
        </mxCell>
        <mxCell id="5kTlIn1ucJ1gf1WWtL7z-71" value="" style="html=1;verticalLabelPosition=bottom;align=center;labelBackgroundColor=#ffffff;verticalAlign=top;strokeWidth=2;strokeColor=#0080F0;shadow=0;dashed=0;shape=mxgraph.ios7.icons.basketball;" vertex="1" parent="1">
          <mxGeometry x="625" y="54" width="30" height="30" as="geometry" />
        </mxCell>
        <mxCell id="5kTlIn1ucJ1gf1WWtL7z-72" value="Photo Restore" style="text;html=1;align=left;verticalAlign=middle;whiteSpace=wrap;rounded=0;fontStyle=1" vertex="1" parent="1">
          <mxGeometry x="683" y="54" width="193" height="30" as="geometry" />
        </mxCell>
        <mxCell id="5kTlIn1ucJ1gf1WWtL7z-73" value="" style="group" vertex="1" connectable="0" parent="1">
          <mxGeometry x="624" y="111" width="300" height="30" as="geometry" />
        </mxCell>
        <mxCell id="5kTlIn1ucJ1gf1WWtL7z-74" value="设备：" style="text;html=1;align=center;verticalAlign=middle;whiteSpace=wrap;rounded=0;" vertex="1" parent="5kTlIn1ucJ1gf1WWtL7z-73">
          <mxGeometry width="60" height="30" as="geometry" />
        </mxCell>
        <mxCell id="5kTlIn1ucJ1gf1WWtL7z-75" value="&amp;nbsp; &amp;nbsp;NVIDIA GeForce RTX 4060" style="rounded=1;whiteSpace=wrap;html=1;align=left;" vertex="1" parent="5kTlIn1ucJ1gf1WWtL7z-73">
          <mxGeometry x="70" width="230" height="30" as="geometry" />
        </mxCell>
        <mxCell id="5kTlIn1ucJ1gf1WWtL7z-76" value="" style="triangle;whiteSpace=wrap;html=1;rotation=90;" vertex="1" parent="5kTlIn1ucJ1gf1WWtL7z-73">
          <mxGeometry x="277" y="5" width="13" height="20" as="geometry" />
        </mxCell>
        <mxCell id="5kTlIn1ucJ1gf1WWtL7z-81" value="" style="group" vertex="1" connectable="0" parent="1">
          <mxGeometry x="623" y="438" width="330" height="266" as="geometry" />
        </mxCell>
        <mxCell id="5kTlIn1ucJ1gf1WWtL7z-55" value="" style="rounded=0;whiteSpace=wrap;html=1;" vertex="1" parent="5kTlIn1ucJ1gf1WWtL7z-81">
          <mxGeometry width="330" height="266" as="geometry" />
        </mxCell>
        <mxCell id="5kTlIn1ucJ1gf1WWtL7z-56" value="超分" style="text;html=1;align=center;verticalAlign=middle;whiteSpace=wrap;rounded=0;" vertex="1" parent="5kTlIn1ucJ1gf1WWtL7z-81">
          <mxGeometry x="14" y="5" width="60" height="30" as="geometry" />
        </mxCell>
        <mxCell id="5kTlIn1ucJ1gf1WWtL7z-57" value="" style="endArrow=none;html=1;rounded=0;exitX=-0.003;exitY=0.148;exitDx=0;exitDy=0;exitPerimeter=0;entryX=1;entryY=0.148;entryDx=0;entryDy=0;entryPerimeter=0;" edge="1" source="5kTlIn1ucJ1gf1WWtL7z-55" target="5kTlIn1ucJ1gf1WWtL7z-55" parent="5kTlIn1ucJ1gf1WWtL7z-81">
          <mxGeometry width="50" height="50" relative="1" as="geometry">
            <mxPoint x="50" y="80" as="sourcePoint" />
            <mxPoint x="100" y="30" as="targetPoint" />
          </mxGeometry>
        </mxCell>
        <mxCell id="5kTlIn1ucJ1gf1WWtL7z-58" value="模型：" style="text;html=1;align=center;verticalAlign=middle;whiteSpace=wrap;rounded=0;" vertex="1" parent="5kTlIn1ucJ1gf1WWtL7z-81">
          <mxGeometry x="14" y="53" width="60" height="30" as="geometry" />
        </mxCell>
        <mxCell id="5kTlIn1ucJ1gf1WWtL7z-59" value="&lt;h1 style=&quot;margin-top: 0px; font-size: 11px;&quot;&gt;&lt;span style=&quot;background-color: initial; font-size: 11px; font-weight: normal;&quot;&gt;Lorem ipsum dolor sit amet, consectetur adipisicing elit, sed do eiusmod tempor incididunt ut labore et dolore magna aliqua.&lt;/span&gt;&lt;/h1&gt;" style="text;html=1;whiteSpace=wrap;overflow=hidden;rounded=0;spacing=0;fontSize=11;" vertex="1" parent="5kTlIn1ucJ1gf1WWtL7z-81">
          <mxGeometry x="44" y="85" width="267" height="51" as="geometry" />
        </mxCell>
        <mxCell id="5kTlIn1ucJ1gf1WWtL7z-60" value="设置：" style="text;html=1;align=center;verticalAlign=middle;whiteSpace=wrap;rounded=0;" vertex="1" parent="5kTlIn1ucJ1gf1WWtL7z-81">
          <mxGeometry x="17" y="138" width="60" height="30" as="geometry" />
        </mxCell>
        <mxCell id="5kTlIn1ucJ1gf1WWtL7z-61" value="倍数" style="shape=ellipse;fillColor=#eeeeee;strokeColor=#999999;gradientColor=#cccccc;html=1;align=left;spacingLeft=4;fontSize=11;fontColor=#666666;labelPosition=right;shadow=0;" vertex="1" parent="5kTlIn1ucJ1gf1WWtL7z-81">
          <mxGeometry x="62" y="168" width="15" height="15" as="geometry" />
        </mxCell>
        <mxCell id="5kTlIn1ucJ1gf1WWtL7z-62" value="分辨率" style="shape=ellipse;fillColor=#eeeeee;strokeColor=#999999;gradientColor=#cccccc;html=1;align=left;spacingLeft=4;fontSize=11;fontColor=#666666;labelPosition=right;shadow=0;" vertex="1" parent="5kTlIn1ucJ1gf1WWtL7z-81">
          <mxGeometry x="62" y="198" width="15" height="15" as="geometry" />
        </mxCell>
        <mxCell id="5kTlIn1ucJ1gf1WWtL7z-63" value="强化图片(1x)" style="shape=ellipse;fillColor=#eeeeee;strokeColor=#999999;gradientColor=#cccccc;html=1;align=left;spacingLeft=4;fontSize=11;fontColor=#666666;labelPosition=right;shadow=0;" vertex="1" parent="5kTlIn1ucJ1gf1WWtL7z-81">
          <mxGeometry x="63" y="228" width="15" height="15" as="geometry" />
        </mxCell>
        <mxCell id="5kTlIn1ucJ1gf1WWtL7z-64" value="2x" style="rounded=1;whiteSpace=wrap;html=1;fontSize=10;" vertex="1" parent="5kTlIn1ucJ1gf1WWtL7z-81">
          <mxGeometry x="123" y="167" width="47" height="16" as="geometry" />
        </mxCell>
        <mxCell id="5kTlIn1ucJ1gf1WWtL7z-65" value="3x" style="rounded=1;whiteSpace=wrap;html=1;fontSize=10;" vertex="1" parent="5kTlIn1ucJ1gf1WWtL7z-81">
          <mxGeometry x="176.5" y="166" width="47" height="18" as="geometry" />
        </mxCell>
        <mxCell id="5kTlIn1ucJ1gf1WWtL7z-66" value="4x" style="rounded=1;whiteSpace=wrap;html=1;fontSize=10;" vertex="1" parent="5kTlIn1ucJ1gf1WWtL7z-81">
          <mxGeometry x="227.5" y="164" width="47" height="20" as="geometry" />
        </mxCell>
        <mxCell id="5kTlIn1ucJ1gf1WWtL7z-67" value="1K (1024 x 1024)" style="rounded=1;whiteSpace=wrap;html=1;fontSize=10;" vertex="1" parent="5kTlIn1ucJ1gf1WWtL7z-81">
          <mxGeometry x="123" y="197" width="120" height="17" as="geometry" />
        </mxCell>
        <mxCell id="5kTlIn1ucJ1gf1WWtL7z-68" value="" style="group;labelBackgroundColor=none;" vertex="1" connectable="0" parent="5kTlIn1ucJ1gf1WWtL7z-81">
          <mxGeometry x="90.5" y="55" width="189" height="22" as="geometry" />
        </mxCell>
        <mxCell id="5kTlIn1ucJ1gf1WWtL7z-69" value="&amp;nbsp; &amp;nbsp; Gen Detail v2" style="rounded=1;whiteSpace=wrap;html=1;align=left;" vertex="1" parent="5kTlIn1ucJ1gf1WWtL7z-68">
          <mxGeometry width="189" height="22" as="geometry" />
        </mxCell>
        <mxCell id="5kTlIn1ucJ1gf1WWtL7z-70" value="" style="triangle;whiteSpace=wrap;html=1;rotation=90;" vertex="1" parent="5kTlIn1ucJ1gf1WWtL7z-68">
          <mxGeometry x="168.5" y="2" width="13" height="20" as="geometry" />
        </mxCell>
        <mxCell id="5kTlIn1ucJ1gf1WWtL7z-82" value="" style="group" vertex="1" connectable="0" parent="1">
          <mxGeometry x="170" y="340" width="330" height="266" as="geometry" />
        </mxCell>
        <mxCell id="5kTlIn1ucJ1gf1WWtL7z-16" value="" style="rounded=0;whiteSpace=wrap;html=1;" vertex="1" parent="5kTlIn1ucJ1gf1WWtL7z-82">
          <mxGeometry width="330" height="266" as="geometry" />
        </mxCell>
        <mxCell id="5kTlIn1ucJ1gf1WWtL7z-17" value="超分" style="text;html=1;align=center;verticalAlign=middle;whiteSpace=wrap;rounded=0;" vertex="1" parent="5kTlIn1ucJ1gf1WWtL7z-82">
          <mxGeometry x="10" y="5" width="60" height="30" as="geometry" />
        </mxCell>
        <mxCell id="5kTlIn1ucJ1gf1WWtL7z-18" value="" style="endArrow=none;html=1;rounded=0;exitX=-0.003;exitY=0.148;exitDx=0;exitDy=0;exitPerimeter=0;entryX=1;entryY=0.148;entryDx=0;entryDy=0;entryPerimeter=0;" edge="1" source="5kTlIn1ucJ1gf1WWtL7z-16" target="5kTlIn1ucJ1gf1WWtL7z-16" parent="5kTlIn1ucJ1gf1WWtL7z-82">
          <mxGeometry width="50" height="50" relative="1" as="geometry">
            <mxPoint x="50" y="80" as="sourcePoint" />
            <mxPoint x="100" y="30" as="targetPoint" />
          </mxGeometry>
        </mxCell>
        <mxCell id="5kTlIn1ucJ1gf1WWtL7z-23" value="模型：" style="text;html=1;align=center;verticalAlign=middle;whiteSpace=wrap;rounded=0;" vertex="1" parent="5kTlIn1ucJ1gf1WWtL7z-82">
          <mxGeometry x="14" y="53" width="60" height="30" as="geometry" />
        </mxCell>
        <mxCell id="5kTlIn1ucJ1gf1WWtL7z-26" value="&lt;h1 style=&quot;margin-top: 0px; font-size: 11px;&quot;&gt;&lt;span style=&quot;background-color: initial; font-size: 11px; font-weight: normal;&quot;&gt;Lorem ipsum dolor sit amet, consectetur adipisicing elit, sed do eiusmod tempor incididunt ut labore et dolore magna aliqua.&lt;/span&gt;&lt;/h1&gt;" style="text;html=1;whiteSpace=wrap;overflow=hidden;rounded=0;spacing=0;fontSize=11;" vertex="1" parent="5kTlIn1ucJ1gf1WWtL7z-82">
          <mxGeometry x="44" y="85" width="267" height="51" as="geometry" />
        </mxCell>
        <mxCell id="5kTlIn1ucJ1gf1WWtL7z-27" value="设置：" style="text;html=1;align=center;verticalAlign=middle;whiteSpace=wrap;rounded=0;" vertex="1" parent="5kTlIn1ucJ1gf1WWtL7z-82">
          <mxGeometry x="17" y="138" width="60" height="30" as="geometry" />
        </mxCell>
        <mxCell id="5kTlIn1ucJ1gf1WWtL7z-28" value="倍数" style="shape=ellipse;fillColor=#eeeeee;strokeColor=#999999;gradientColor=#cccccc;html=1;align=left;spacingLeft=4;fontSize=11;fontColor=#666666;labelPosition=right;shadow=0;" vertex="1" parent="5kTlIn1ucJ1gf1WWtL7z-82">
          <mxGeometry x="62" y="168" width="15" height="15" as="geometry" />
        </mxCell>
        <mxCell id="5kTlIn1ucJ1gf1WWtL7z-31" value="分辨率" style="shape=ellipse;fillColor=#eeeeee;strokeColor=#999999;gradientColor=#cccccc;html=1;align=left;spacingLeft=4;fontSize=11;fontColor=#666666;labelPosition=right;shadow=0;" vertex="1" parent="5kTlIn1ucJ1gf1WWtL7z-82">
          <mxGeometry x="62" y="198" width="15" height="15" as="geometry" />
        </mxCell>
        <mxCell id="5kTlIn1ucJ1gf1WWtL7z-32" value="强化图片(1x)" style="shape=ellipse;fillColor=#eeeeee;strokeColor=#999999;gradientColor=#cccccc;html=1;align=left;spacingLeft=4;fontSize=11;fontColor=#666666;labelPosition=right;shadow=0;" vertex="1" parent="5kTlIn1ucJ1gf1WWtL7z-82">
          <mxGeometry x="63" y="228" width="15" height="15" as="geometry" />
        </mxCell>
        <mxCell id="5kTlIn1ucJ1gf1WWtL7z-35" value="2x" style="rounded=1;whiteSpace=wrap;html=1;fontSize=10;" vertex="1" parent="5kTlIn1ucJ1gf1WWtL7z-82">
          <mxGeometry x="123" y="167" width="47" height="16" as="geometry" />
        </mxCell>
        <mxCell id="5kTlIn1ucJ1gf1WWtL7z-36" value="3x" style="rounded=1;whiteSpace=wrap;html=1;fontSize=10;" vertex="1" parent="5kTlIn1ucJ1gf1WWtL7z-82">
          <mxGeometry x="176.5" y="166" width="47" height="18" as="geometry" />
        </mxCell>
        <mxCell id="5kTlIn1ucJ1gf1WWtL7z-37" value="4x" style="rounded=1;whiteSpace=wrap;html=1;fontSize=10;" vertex="1" parent="5kTlIn1ucJ1gf1WWtL7z-82">
          <mxGeometry x="227.5" y="164" width="47" height="20" as="geometry" />
        </mxCell>
        <mxCell id="5kTlIn1ucJ1gf1WWtL7z-38" value="1K (1024 x 1024)" style="rounded=1;whiteSpace=wrap;html=1;fontSize=10;" vertex="1" parent="5kTlIn1ucJ1gf1WWtL7z-82">
          <mxGeometry x="123" y="197" width="120" height="17" as="geometry" />
        </mxCell>
        <mxCell id="5kTlIn1ucJ1gf1WWtL7z-41" value="" style="group;labelBackgroundColor=none;" vertex="1" connectable="0" parent="5kTlIn1ucJ1gf1WWtL7z-82">
          <mxGeometry x="90.5" y="55" width="189" height="22" as="geometry" />
        </mxCell>
        <mxCell id="5kTlIn1ucJ1gf1WWtL7z-25" value="&amp;nbsp; &amp;nbsp; Gen Detail v2" style="rounded=1;whiteSpace=wrap;html=1;align=left;" vertex="1" parent="5kTlIn1ucJ1gf1WWtL7z-41">
          <mxGeometry width="189" height="22" as="geometry" />
        </mxCell>
        <mxCell id="5kTlIn1ucJ1gf1WWtL7z-40" value="" style="triangle;whiteSpace=wrap;html=1;rotation=90;" vertex="1" parent="5kTlIn1ucJ1gf1WWtL7z-41">
          <mxGeometry x="168.5" y="2" width="13" height="20" as="geometry" />
        </mxCell>
        <mxCell id="5kTlIn1ucJ1gf1WWtL7z-83" value="" style="group" vertex="1" connectable="0" parent="1">
          <mxGeometry x="170" y="170" width="331" height="150" as="geometry" />
        </mxCell>
        <mxCell id="5kTlIn1ucJ1gf1WWtL7z-4" value="" style="rounded=0;whiteSpace=wrap;html=1;" vertex="1" parent="5kTlIn1ucJ1gf1WWtL7z-83">
          <mxGeometry width="330" height="150" as="geometry" />
        </mxCell>
        <mxCell id="5kTlIn1ucJ1gf1WWtL7z-6" value="" style="endArrow=none;html=1;rounded=0;exitX=0;exitY=0.2;exitDx=0;exitDy=0;exitPerimeter=0;" edge="1" parent="5kTlIn1ucJ1gf1WWtL7z-83" source="5kTlIn1ucJ1gf1WWtL7z-4">
          <mxGeometry width="50" height="50" relative="1" as="geometry">
            <mxPoint x="50" y="80" as="sourcePoint" />
            <mxPoint x="331" y="30" as="targetPoint" />
          </mxGeometry>
        </mxCell>
        <mxCell id="5kTlIn1ucJ1gf1WWtL7z-7" value="照片修复" style="text;html=1;align=center;verticalAlign=middle;whiteSpace=wrap;rounded=0;" vertex="1" parent="5kTlIn1ucJ1gf1WWtL7z-83">
          <mxGeometry x="10" width="60" height="30" as="geometry" />
        </mxCell>
        <mxCell id="5kTlIn1ucJ1gf1WWtL7z-14" value="黑白照片上色" style="rounded=1;fillColor=#F0F2F5;strokeColor=#D8DCE3;align=left;verticalAlign=middle;fontStyle=0;fontSize=12;labelPosition=right;verticalLabelPosition=middle;spacingLeft=10;html=1;shadow=0;dashed=0" vertex="1" parent="5kTlIn1ucJ1gf1WWtL7z-83">
          <mxGeometry x="24" y="109" width="12" height="12" as="geometry" />
        </mxCell>
        <mxCell id="5kTlIn1ucJ1gf1WWtL7z-49" value="" style="group" vertex="1" connectable="0" parent="5kTlIn1ucJ1gf1WWtL7z-83">
          <mxGeometry x="24" y="56" width="256" height="20" as="geometry" />
        </mxCell>
        <mxCell id="5kTlIn1ucJ1gf1WWtL7z-9" value="人脸修复" style="rounded=1;fillColor=#F0F2F5;strokeColor=#D8DCE3;align=left;verticalAlign=middle;fontStyle=0;fontSize=12;labelPosition=right;verticalLabelPosition=middle;spacingLeft=10;html=1;shadow=0;dashed=0" vertex="1" parent="5kTlIn1ucJ1gf1WWtL7z-49">
          <mxGeometry y="4" width="12" height="12" as="geometry" />
        </mxCell>
        <mxCell id="5kTlIn1ucJ1gf1WWtL7z-10" value="&amp;nbsp; 仅高清人脸" style="rounded=1;whiteSpace=wrap;html=1;align=left;" vertex="1" parent="5kTlIn1ucJ1gf1WWtL7z-49">
          <mxGeometry x="86" width="170" height="20" as="geometry" />
        </mxCell>
        <mxCell id="5kTlIn1ucJ1gf1WWtL7z-39" value="" style="triangle;whiteSpace=wrap;html=1;rotation=90;" vertex="1" parent="5kTlIn1ucJ1gf1WWtL7z-49">
          <mxGeometry x="235" width="13" height="20" as="geometry" />
        </mxCell>
        <mxCell id="5kTlIn1ucJ1gf1WWtL7z-84" value="" style="group" vertex="1" connectable="0" parent="1">
          <mxGeometry x="171" y="56" width="300" height="87" as="geometry" />
        </mxCell>
        <mxCell id="5kTlIn1ucJ1gf1WWtL7z-42" value="" style="html=1;verticalLabelPosition=bottom;align=center;labelBackgroundColor=#ffffff;verticalAlign=top;strokeWidth=2;strokeColor=#0080F0;shadow=0;dashed=0;shape=mxgraph.ios7.icons.basketball;" vertex="1" parent="5kTlIn1ucJ1gf1WWtL7z-84">
          <mxGeometry x="1" width="30" height="30" as="geometry" />
        </mxCell>
        <mxCell id="5kTlIn1ucJ1gf1WWtL7z-43" value="Photo Restore" style="text;html=1;align=left;verticalAlign=middle;whiteSpace=wrap;rounded=0;fontStyle=1" vertex="1" parent="5kTlIn1ucJ1gf1WWtL7z-84">
          <mxGeometry x="59" width="193" height="30" as="geometry" />
        </mxCell>
        <mxCell id="5kTlIn1ucJ1gf1WWtL7z-48" value="" style="group" vertex="1" connectable="0" parent="5kTlIn1ucJ1gf1WWtL7z-84">
          <mxGeometry y="57" width="300" height="30" as="geometry" />
        </mxCell>
        <mxCell id="5kTlIn1ucJ1gf1WWtL7z-2" value="设备：" style="text;html=1;align=center;verticalAlign=middle;whiteSpace=wrap;rounded=0;" vertex="1" parent="5kTlIn1ucJ1gf1WWtL7z-48">
          <mxGeometry width="60" height="30" as="geometry" />
        </mxCell>
        <mxCell id="5kTlIn1ucJ1gf1WWtL7z-3" value="&amp;nbsp; &amp;nbsp;NVIDIA GeForce RTX 4060" style="rounded=1;whiteSpace=wrap;html=1;align=left;" vertex="1" parent="5kTlIn1ucJ1gf1WWtL7z-48">
          <mxGeometry x="70" width="230" height="30" as="geometry" />
        </mxCell>
        <mxCell id="5kTlIn1ucJ1gf1WWtL7z-44" value="" style="triangle;whiteSpace=wrap;html=1;rotation=90;" vertex="1" parent="5kTlIn1ucJ1gf1WWtL7z-48">
          <mxGeometry x="277" y="5" width="13" height="20" as="geometry" />
        </mxCell>
        <mxCell id="5kTlIn1ucJ1gf1WWtL7z-103" value="" style="group" vertex="1" connectable="0" parent="1">
          <mxGeometry x="623" y="168" width="331" height="143" as="geometry" />
        </mxCell>
        <mxCell id="5kTlIn1ucJ1gf1WWtL7z-51" value="" style="rounded=0;whiteSpace=wrap;html=1;" vertex="1" parent="5kTlIn1ucJ1gf1WWtL7z-103">
          <mxGeometry width="330" height="143" as="geometry" />
        </mxCell>
        <mxCell id="5kTlIn1ucJ1gf1WWtL7z-52" value="" style="endArrow=none;html=1;rounded=0;exitX=0;exitY=0.25;exitDx=0;exitDy=0;" edge="1" source="5kTlIn1ucJ1gf1WWtL7z-51" parent="5kTlIn1ucJ1gf1WWtL7z-103">
          <mxGeometry width="50" height="50" relative="1" as="geometry">
            <mxPoint x="5" y="34" as="sourcePoint" />
            <mxPoint x="331" y="34" as="targetPoint" />
          </mxGeometry>
        </mxCell>
        <mxCell id="5kTlIn1ucJ1gf1WWtL7z-53" value="脸部修复" style="text;html=1;align=center;verticalAlign=middle;whiteSpace=wrap;rounded=0;" vertex="1" parent="5kTlIn1ucJ1gf1WWtL7z-103">
          <mxGeometry x="22" y="2" width="60" height="30" as="geometry" />
        </mxCell>
        <mxCell id="5kTlIn1ucJ1gf1WWtL7z-79" value="&amp;nbsp; 仅高清人脸" style="rounded=1;whiteSpace=wrap;html=1;align=left;" vertex="1" parent="5kTlIn1ucJ1gf1WWtL7z-103">
          <mxGeometry x="110" y="56" width="170" height="20" as="geometry" />
        </mxCell>
        <mxCell id="5kTlIn1ucJ1gf1WWtL7z-80" value="" style="triangle;whiteSpace=wrap;html=1;rotation=90;" vertex="1" parent="5kTlIn1ucJ1gf1WWtL7z-103">
          <mxGeometry x="259" y="56" width="13" height="20" as="geometry" />
        </mxCell>
        <mxCell id="5kTlIn1ucJ1gf1WWtL7z-85" value="选择人脸：" style="text;html=1;align=center;verticalAlign=middle;whiteSpace=wrap;rounded=0;" vertex="1" parent="5kTlIn1ucJ1gf1WWtL7z-103">
          <mxGeometry x="24" y="51" width="79" height="30" as="geometry" />
        </mxCell>
        <mxCell id="5kTlIn1ucJ1gf1WWtL7z-86" value="融合方式：" style="text;html=1;align=center;verticalAlign=middle;whiteSpace=wrap;rounded=0;" vertex="1" parent="5kTlIn1ucJ1gf1WWtL7z-103">
          <mxGeometry x="27" y="92" width="79" height="30" as="geometry" />
        </mxCell>
        <mxCell id="5kTlIn1ucJ1gf1WWtL7z-87" value="&amp;nbsp;自动融合" style="rounded=1;whiteSpace=wrap;html=1;align=left;" vertex="1" parent="5kTlIn1ucJ1gf1WWtL7z-103">
          <mxGeometry x="110" y="97" width="170" height="20" as="geometry" />
        </mxCell>
        <mxCell id="5kTlIn1ucJ1gf1WWtL7z-88" value="" style="triangle;whiteSpace=wrap;html=1;rotation=90;" vertex="1" parent="5kTlIn1ucJ1gf1WWtL7z-103">
          <mxGeometry x="259" y="98" width="13" height="20" as="geometry" />
        </mxCell>
        <mxCell id="5kTlIn1ucJ1gf1WWtL7z-105" value="" style="dashed=0;labelPosition=right;align=left;shape=mxgraph.gmdl.checkbox;strokeColor=#666666;fillColor=none;strokeWidth=2;aspect=fixed;sketch=0;html=1;" vertex="1" parent="1">
          <mxGeometry x="629" y="177" width="16" height="16" as="geometry" />
        </mxCell>
        <mxCell id="5kTlIn1ucJ1gf1WWtL7z-107" value="" style="dashed=0;labelPosition=right;align=left;shape=mxgraph.gmdl.checkbox;strokeColor=#666666;fillColor=none;strokeWidth=2;aspect=fixed;sketch=0;html=1;" vertex="1" parent="1">
          <mxGeometry x="630" y="450" width="16" height="16" as="geometry" />
        </mxCell>
        <mxCell id="5kTlIn1ucJ1gf1WWtL7z-111" value="" style="group" vertex="1" connectable="0" parent="1">
          <mxGeometry x="623" y="327" width="331" height="94" as="geometry" />
        </mxCell>
        <mxCell id="5kTlIn1ucJ1gf1WWtL7z-93" value="" style="rounded=0;whiteSpace=wrap;html=1;" vertex="1" parent="5kTlIn1ucJ1gf1WWtL7z-111">
          <mxGeometry width="330" height="94" as="geometry" />
        </mxCell>
        <mxCell id="5kTlIn1ucJ1gf1WWtL7z-94" value="" style="endArrow=none;html=1;rounded=0;exitX=0.002;exitY=0.332;exitDx=0;exitDy=0;exitPerimeter=0;" edge="1" parent="5kTlIn1ucJ1gf1WWtL7z-111" source="5kTlIn1ucJ1gf1WWtL7z-93">
          <mxGeometry width="50" height="50" relative="1" as="geometry">
            <mxPoint x="2" y="34" as="sourcePoint" />
            <mxPoint x="331" y="29" as="targetPoint" />
          </mxGeometry>
        </mxCell>
        <mxCell id="5kTlIn1ucJ1gf1WWtL7z-95" value="黑色图上色" style="text;html=1;align=center;verticalAlign=middle;whiteSpace=wrap;rounded=0;" vertex="1" parent="5kTlIn1ucJ1gf1WWtL7z-111">
          <mxGeometry x="17" y="2" width="88" height="30" as="geometry" />
        </mxCell>
        <mxCell id="5kTlIn1ucJ1gf1WWtL7z-96" value="&amp;nbsp; 模型名称" style="rounded=1;whiteSpace=wrap;html=1;align=left;" vertex="1" parent="5kTlIn1ucJ1gf1WWtL7z-111">
          <mxGeometry x="110" y="56" width="170" height="20" as="geometry" />
        </mxCell>
        <mxCell id="5kTlIn1ucJ1gf1WWtL7z-97" value="" style="triangle;whiteSpace=wrap;html=1;rotation=90;" vertex="1" parent="5kTlIn1ucJ1gf1WWtL7z-111">
          <mxGeometry x="259" y="56" width="13" height="20" as="geometry" />
        </mxCell>
        <mxCell id="5kTlIn1ucJ1gf1WWtL7z-98" value="上色模型：" style="text;html=1;align=center;verticalAlign=middle;whiteSpace=wrap;rounded=0;" vertex="1" parent="5kTlIn1ucJ1gf1WWtL7z-111">
          <mxGeometry x="24" y="51" width="79" height="30" as="geometry" />
        </mxCell>
        <mxCell id="5kTlIn1ucJ1gf1WWtL7z-110" value="" style="dashed=0;labelPosition=right;align=left;shape=mxgraph.gmdl.checkbox;strokeColor=#666666;fillColor=none;strokeWidth=2;aspect=fixed;sketch=0;html=1;" vertex="1" parent="5kTlIn1ucJ1gf1WWtL7z-111">
          <mxGeometry x="8" y="9" width="16" height="16" as="geometry" />
        </mxCell>
      </root>
    </mxGraphModel>
  </diagram>
</mxfile>
